# xmcd
#
# Track frame offsets: 
#        150
#        2549
#        21146
#        37205
#        53130
#        66080
#        79123
#        93514
#        114118
#        127154
#        144026
#        147550
#        160883
#        175081
#        192683
#        196022
#        213944
#        234350
#        247895
#        261422
#        281419
#
# Disc length: 3982 seconds
#
# Revision: 0
# Processed by: cddbd v1.5.2PL0 Copyright (c) Steve Scherf et al.
# Submitted via: ExactAudioCopy v0.99pb5
#
DISCID=240f8c15
DTITLE=Sisu Tudor - Temnita luminii
DYEAR=2011
DGENRE=Hip-Hop
TTITLE0=Intro
TTITLE1=Imi place (feat. Pacha Man and Motzu)
TTITLE2=Rude boy (feat. Pacha Man)
TTITLE3=Daca vrei (feat. Baboi and What's up)
TTITLE4=Anotimpuri (feat. Subsemnatu)
TTITLE5=Am nevoie de rabdare (feat. Angeles)
TTITLE6=Iti lipseste curaju (feat. Dragonu ak 47)
TTITLE7=Caractere (feat. Bibannu and Zmili)
TTITLE8=Joc de copii (feat. Super Ed)
TTITLE9=Mintea mea (feat. What's up)
TTITLE10=Skit
TTITLE11=Complementar
TTITLE12=3 (feat. Giovanni)
TTITLE13=Bagabonti in tara minunilor (feat. Dragonu ak 47 si Dj Limun)
TTITLE14=Skit
TTITLE15=Nopti de foc (feat. Angeles and Giovanni)
TTITLE16=Strada (feat. Cabron)
TTITLE17=O sa trecem peste
TTITLE18=Stare de spirit
TTITLE19=Ca-n 97 (feat. Subsemnatu, Pacha Man, Mic Gee and Esstrada)
TTITLE20=Outro
EXTD=
EXTT0=
EXTT1=
EXTT2=
EXTT3=
EXTT4=
EXTT5=
EXTT6=
EXTT7=
EXTT8=
EXTT9=
EXTT10=
EXTT11=
EXTT12=
EXTT13=
EXTT14=
EXTT15=
EXTT16=
EXTT17=
EXTT18=
EXTT19=
EXTT20=
PLAYORDER=
